<svg width="23" height="23" viewBox="0 0 23 23" fill="none" xmlns="http://www.w3.org/2000/svg">
<path d="M14.1108 7.7225L7.66642 14.0554" stroke="#D61C4E" stroke-width="2" stroke-linecap="round" stroke-linejoin="round"/>
<path d="M8.30564 7.66669C8.65849 7.66669 8.94453 7.38065 8.94453 7.0278C8.94453 6.67496 8.65849 6.38892 8.30564 6.38892C7.95279 6.38892 7.66675 6.67496 7.66675 7.0278C7.66675 7.38065 7.95279 7.66669 8.30564 7.66669Z" stroke="#D61C4E" stroke-width="2" stroke-linecap="round" stroke-linejoin="round"/>
<path d="M14.6946 15.3334C15.0474 15.3334 15.3334 15.0474 15.3334 14.6946C15.3334 14.3417 15.0474 14.0557 14.6946 14.0557C14.3417 14.0557 14.0557 14.3417 14.0557 14.6946C14.0557 15.0474 14.3417 15.3334 14.6946 15.3334Z" stroke="#D61C4E" stroke-width="2" stroke-linecap="round" stroke-linejoin="round"/>
<rect x="1.95825" y="1.95825" width="18.4444" height="18.4444" rx="4" stroke="#D61C4E" stroke-width="2"/>
</svg>
